<svg width="54" height="53" viewBox="0 0 54 53" fill="none" xmlns="http://www.w3.org/2000/svg">
<circle cx="26.7108" cy="26.361" r="25.1503" transform="rotate(-90 26.7108 26.361)" stroke="#A57847" stroke-width="2.42174"/>
<g clip-path="url(#clip0_445_2569)">
<path d="M29.7255 33.3281H31.7909C32.6259 33.3281 33.0565 32.8975 33.0565 32.0625V19.9688C33.0565 19.1162 32.6259 18.7031 31.7909 18.7031H29.7255C28.8905 18.7031 28.4598 19.1338 28.4598 19.9688V32.0625C28.4598 32.8975 28.8817 33.3281 29.7255 33.3281ZM37.038 33.3281H39.1034C39.9384 33.3281 40.369 32.8975 40.369 32.0625V19.9688C40.369 19.1162 39.9384 18.7031 39.1034 18.7031H37.038C36.203 18.7031 35.7723 19.1338 35.7723 19.9688V32.0625C35.7723 32.8975 36.1942 33.3281 37.038 33.3281ZM14.4764 33.0908C14.8632 33.0908 15.1971 32.9766 15.5751 32.7568L24.5839 27.4658C25.243 27.0791 25.5858 26.6045 25.5858 26.0068C25.5858 25.418 25.2518 24.9609 24.5839 24.5654L15.5751 19.2744C15.1884 19.0547 14.8632 18.9404 14.4677 18.9404C13.6942 18.9404 13.0526 19.5205 13.0526 20.5928V31.4385C13.0526 32.5107 13.703 33.0908 14.4764 33.0908Z" fill="#452B17"/>
</g>
<defs>
<clipPath id="clip0_445_2569">
<rect width="28" height="28" fill="white" transform="translate(12.7108 12.3613)"/>
</clipPath>
</defs>
</svg>
